<svg xmlns="http://www.w3.org/2000/svg" width="18.001" height="18.001"><g fill="none" stroke="#fff" stroke-linecap="round" stroke-linejoin="round" data-name="vuesax/linear/profile-circle"><path d="M9.091 9.598a.725.725 0 0 0-.181 0 2.47 2.47 0 1 1 .181 0Z"/><path data-name="Vector" d="M14.041 14.523a7.4 7.4 0 0 1-5.04 1.972 7.4 7.4 0 0 1-5.04-1.972 2.771 2.771 0 0 1 1.324-1.943 7.233 7.233 0 0 1 7.433 0 2.771 2.771 0 0 1 1.323 1.943Z"/><path data-name="Vector" d="M16.496 9.001a7.495 7.495 0 1 1-7.495-7.495 7.495 7.495 0 0 1 7.495 7.495Z"/></g></svg>